<svg version="1.1" id="Layer_1" xmlns="http://www.w3.org/2000/svg" x="0" y="0" viewBox="0 0 703 182" xml:space="preserve"><style>.st0{fill:#00b2a5}.st1{fill:#666}</style><g id="SPRD_Logo_Horizontal_Light_2_"><g id="Group_1194_2_"><path id="Path_633_2_" class="st0" d="M94.4 62.3L73.1 41 33.6 80.5l60.8 60.8 60.8-60.8L115.7 41 94.4 62.3zm0 60.8L51.8 80.5l21.3-21.3 21.3 21.3 21.2-21.2 21.3 21.3-42.5 42.5z"></path><path id="Path_634_2_" class="st0" d="M209.1 83.7c-.2-1.9-1.1-3.8-2.6-5-1.9-1.2-4.2-1.7-6.4-1.6-2.1-.1-4.2.2-6.2 1-1.8.8-2.6 2.9-1.8 4.7.4.8 1 1.4 1.8 1.8 1.9 1 4 1.8 6.1 2.3 4.3 1.2 8 2.2 11 3.1 2.5.7 5 1.7 7.2 3 1.7 1 3 2.5 3.9 4.3.9 2.2 1.3 4.6 1.2 7 0 4.4-2 8.5-5.6 11.1-3.7 2.9-9.3 4.4-16.6 4.4-3.3 0-6.6-.4-9.8-1.2-2.7-.7-5.2-1.9-7.5-3.5-2-1.4-3.6-3.3-4.8-5.5-1.1-2.2-1.7-4.7-1.8-7.2h13.6c-.1 2.2 1 4.3 2.8 5.5 2.2 1.4 4.7 2 7.3 1.9 2.2.1 4.5-.3 6.5-1.2 1.6-.5 2.7-1.9 2.7-3.6.1-1.6-.6-3.1-2-4-1.9-1-4-1.7-6.1-2.1-4-.8-8-2-11.8-3.4-2.5-.9-4.9-2.2-6.9-3.9-1.5-1.2-2.7-2.8-3.3-4.7-.6-1.8-.9-3.8-.9-5.7 0-1.9.4-3.7 1.2-5.4.8-1.8 2.1-3.3 3.7-4.5 2-1.4 4.2-2.5 6.6-3.1 3.3-.8 6.6-1.2 10-1.2 7.2 0 12.4 1.5 15.8 4.4s5.1 6.9 5.5 12.1l-12.8.2zm88.9 34.8v-26c0-8.1 4-12.1 12.1-12.1 1.2 0 2.5.1 3.7.3V67.2h-1.7c-1.4 0-2.7.1-4 .2-1.3.1-2.6.5-3.8 1-1.3.5-2.6 1.3-3.7 2.2-1.3 1.1-2.5 2.5-3.4 4v-6h-12.4v50l13.2-.1zm32.9-29.9c.1-3 1.3-5.9 3.3-8.1 1.8-1.9 4.2-2.9 6.8-2.9 1.3 0 2.6.2 3.8.7 1.2.4 2.3 1.1 3.2 2 1 1 1.8 2.1 2.3 3.4.6 1.5.9 3.2 1 4.8l-20.4.1zM365 97c0-10-2-17.4-6-22.4s-9.8-7.4-17.5-7.4c-3.5-.1-7 .5-10.3 1.8-2.9 1.1-5.5 2.8-7.6 5.1-2.1 2.3-3.7 5-4.7 8-1.1 3.4-1.7 6.9-1.6 10.5 0 18.2 8.3 27.2 25 27.2 4.9.1 9.8-1.3 13.8-4.2 4-2.9 6.8-7.1 8.1-11.9h-13.6c-.5 1.7-1.6 3.2-3.2 4.1-1.7 1-3.7 1.5-5.7 1.5-3 .1-5.9-1.1-7.9-3.3-2.1-2.5-3.3-5.7-3.3-9H365zm35.9 2.5c0 1.5-.3 2.9-1 4.2-.6 1.3-1.4 2.4-2.5 3.4s-2.4 1.8-3.8 2.3c-1.5.6-3.1.9-4.7.9-4.3 0-6.4-1.9-6.4-5.6-.1-1.9.7-3.7 2.1-5 1.4-1.1 4-2.1 7.8-2.8 2.4-.5 4.3-.9 5.6-1.3 1.1-.3 2.1-.9 2.9-1.6v5.5zm13.3 19V86.9c0-2.8-.3-5.7-1.1-8.4-.7-2.3-1.9-4.5-3.6-6.2-1.9-1.8-4.1-3.1-6.6-3.8-3.2-.9-6.6-1.4-10-1.3-3.4-.1-6.9.4-10.2 1.3-2.5.7-4.8 1.9-6.7 3.6-1.7 1.5-3 3.4-3.8 5.6-.8 2.3-1.2 4.7-1.3 7.1h12.3c.2-2 1.1-3.9 2.5-5.4 1.3-1.4 3.5-2 6.6-2 2.2-.1 4.3.4 6.2 1.4 2.2 1.3 3 4.1 1.7 6.3-.3.5-.6.9-1.1 1.3-1.1.8-3.4 1.4-6.7 1.9s-6.4 1-9.2 1.6c-2.6.5-5 1.4-7.3 2.7-2 1.2-3.7 2.9-4.8 5-1.3 2.7-1.9 5.6-1.7 8.6-.1 3.7 1.3 7.3 4 9.9 2.7 2.5 6.9 3.8 12.6 3.8 3 .1 6.1-.5 8.9-1.6 2.4-.9 4.5-2.3 6.2-4.2.1 1.5.4 3 .8 4.5l12.3-.1zm31-9.4c-3.2 0-6.3-1.5-8.1-4.2-2.1-2.8-3.1-6.5-3.1-10.9 0-10.3 3.8-15.4 11.4-15.5 7.4 0 11.1 5.4 11.1 16.2.2 3.7-1 7.4-3.2 10.4-2 2.5-4.9 4-8.1 4m23.6 9.4V50.2h-13V75c-3.3-5-8.9-7.9-14.8-7.8-3-.1-6 .6-8.7 1.9-2.5 1.3-4.7 3.1-6.5 5.3-1.8 2.5-3.2 5.2-4 8.2-1 3.4-1.4 6.9-1.4 10.4-.1 3.8.5 7.6 1.6 11.3.9 3.1 2.5 5.9 4.5 8.4 1.8 2.3 4.1 4.1 6.8 5.3 2.7 1.2 5.7 1.9 8.7 1.8 6.2 0 10.9-2.5 13.9-7.4l.1 6.1h12.8zM253.3 78c3.2 0 6.3 1.5 8.1 4.2 2.1 2.8 3.1 6.5 3.1 10.9 0 10.3-3.8 15.4-11.4 15.5-7.4 0-11.1-5.4-11.1-16.2-.2-3.7 1-7.4 3.2-10.4 1.9-2.5 4.9-4 8.1-4m-23.6-9.5v68.3h13V112c3.3 5 8.9 7.9 14.8 7.8 3 .1 6-.6 8.7-1.9 2.5-1.3 4.7-3.1 6.5-5.3 1.8-2.5 3.2-5.2 4-8.2 1-3.4 1.4-6.9 1.4-10.4.1-3.8-.5-7.6-1.6-11.3-.9-3.1-2.5-5.9-4.5-8.4-1.8-2.3-4.1-4.1-6.8-5.3-2.7-1.2-5.7-1.9-8.7-1.8-6.2 0-10.9 2.5-13.9 7.4l-.1-6.1h-12.8zm289.5 15.2c-.1-4.6-2.1-9-5.5-12.1-3.3-2.9-8.6-4.4-15.8-4.4-3.4-.1-6.7.3-10 1.2-2.4.6-4.6 1.7-6.6 3.1-1.6 1.2-2.9 2.7-3.7 4.5-.8 1.7-1.2 3.5-1.2 5.4 0 1.9.3 3.9.9 5.7.7 1.8 1.8 3.4 3.3 4.7 2.1 1.7 4.4 3 6.9 3.9 3.8 1.4 7.8 2.6 11.8 3.4 2.1.4 4.2 1.1 6.1 2.1 1.3.9 2.1 2.4 2 4 0 1.7-1.1 3.1-2.7 3.6-2.1.8-4.3 1.2-6.5 1.2-2.6.1-5.1-.6-7.3-1.9-1.8-1.2-2.9-3.3-2.8-5.5h-13.6c0 5 2.5 9.7 6.6 12.6 2.3 1.6 4.8 2.8 7.5 3.5 3.2.9 6.5 1.3 9.8 1.2 7.3 0 12.8-1.5 16.6-4.4 3.6-2.6 5.6-6.7 5.6-11.1.1-2.4-.3-4.7-1.2-6.9-.8-1.8-2.2-3.3-3.9-4.3-2.3-1.3-4.7-2.3-7.2-3-3-.8-6.6-1.9-11-3.1-2.1-.5-4.2-1.3-6.1-2.3-1.3-.6-2.1-1.8-2.1-3.2-.1-1.4.8-2.8 2.1-3.3 2-.7 4.1-1.1 6.2-1 2.8 0 5 .5 6.4 1.6 1.5 1.3 2.4 3.1 2.6 5l12.8-.2zm53.1 34.8V83.1c0-5-1.6-8.9-4.8-11.7s-7.4-4.2-12.5-4.2c-3.2 0-6.3.8-9.1 2.2-1.2.7-2.4 1.5-3.4 2.5-.9.9-1.7 1.9-2.2 3.1V50.2h-13.2v68.3h13.2V89.8c0-1.6.2-3.2.7-4.7.4-1.4 1.1-2.7 2-3.9.9-1.1 2-2 3.2-2.6 1.4-.7 2.9-1 4.4-1 3 0 5.2.7 6.6 2.1 1.3 1.4 2 4 2 7.8v31h13.1zm43.8 0v-26c0-8.1 4-12.1 12.1-12.1 1.2 0 2.5.1 3.7.3V67.2h-1.7c-1.4 0-2.7.1-4 .2-1.3.1-2.6.5-3.8 1-1.3.5-2.6 1.3-3.7 2.2-1.3 1.1-2.5 2.5-3.4 4v-6h-12.4v50l13.2-.1zm47.2-10.1H658c-2.7 0-4.7-.9-5.9-2.6-1.3-2.2-1.9-4.8-1.8-7.4V79h9.9V67.7h-9.9V50.4h-13v49.4c0 2.6.4 5.2 1.1 7.7.7 2.4 1.9 4.6 3.6 6.4 1.8 1.9 4 3.4 6.4 4.4 3 1.2 6.2 1.7 9.4 1.6h5.5v-11.5zm-82.4 10.1h13.2v-50h-13.2v50zm0-68.3h13.2v12.3h-13.2V50.2z"></path></g></g><path class="st1" d="M432.6 150.1c-.2 2.1-.9 3.8-2.4 5.1s-3.3 1.8-5.6 1.8c-2.6 0-4.6-.9-6-2.6s-2.2-4.1-2.2-7.1v-1.2c0-1.9.3-3.6 1-5.1s1.6-2.6 2.9-3.4 2.7-1.2 4.4-1.2c2.3 0 4.1.6 5.6 1.8s2.2 3 2.4 5.2h-4.1c-.1-1.3-.5-2.2-1.1-2.8s-1.6-.9-2.8-.9c-1.4 0-2.4.5-3.1 1.5s-1 2.5-1 4.6v1.5c0 2.2.3 3.7 1 4.7s1.7 1.5 3.1 1.5c1.3 0 2.2-.3 2.8-.9s1-1.5 1.1-2.7h4zM449.7 149.4h-3.3v7.3h-4.1v-19.9h7.4c2.4 0 4.2.5 5.4 1.6s1.9 2.5 1.9 4.4c0 1.4-.3 2.5-.9 3.4s-1.5 1.6-2.7 2.2l4.3 8.1v.2h-4.4l-3.6-7.3zm-3.3-3.3h3.3c1 0 1.8-.3 2.4-.8s.8-1.2.8-2.2c0-.9-.3-1.7-.8-2.2s-1.4-.8-2.5-.8h-3.3v6zM479.1 148.1h-7.9v5.3h9.2v3.3h-13.3v-19.9h13.3v3.3h-9.2v4.7h7.9v3.3zM501.2 152.6H494l-1.4 4.1h-4.4l7.4-19.9h3.8l7.5 19.9h-4.4l-1.3-4.1zm-6.1-3.3h5l-2.5-7.5-2.5 7.5zM529.1 140.1H523v16.6h-4.1v-16.6h-6v-3.3h16.2v3.3zM550.4 148.1h-7.9v5.3h9.2v3.3h-13.3v-19.9h13.3v3.3h-9.2v4.7h7.9v3.3zM575.2 156.7v-19.9h7c2.4 0 4.2.5 5.5 1.4s1.9 2.3 1.9 4.1c0 1-.3 1.8-.8 2.6s-1.2 1.3-2.1 1.6c1 .3 1.8.8 2.4 1.5s.9 1.7.9 2.8c0 1.9-.6 3.4-1.8 4.3s-3 1.5-5.2 1.5h-7.8zm4.1-11.6h3c2.1 0 3.1-.9 3.1-2.5 0-.9-.3-1.6-.8-1.9s-1.4-.6-2.5-.6h-2.9v5zm0 2.9v5.4h3.5c1 0 1.7-.2 2.3-.7s.8-1.1.8-1.9c0-1.8-.9-2.7-2.8-2.8h-3.8zM604.1 153.4h8.7v3.3H600v-19.9h4.1v16.6zM637.7 147.2c0 2-.3 3.7-1 5.2s-1.7 2.6-3 3.4-2.8 1.2-4.4 1.2c-1.6 0-3.1-.4-4.4-1.2s-2.3-1.9-3-3.4-1.1-3.2-1.1-5.1v-1c0-2 .4-3.7 1.1-5.2s1.7-2.6 3-3.4 2.8-1.2 4.4-1.2 3.1.4 4.4 1.2 2.3 1.9 3 3.4 1.1 3.2 1.1 5.2v.9zm-4.2-.9c0-2.1-.4-3.7-1.1-4.8s-1.8-1.6-3.2-1.6c-1.4 0-2.4.5-3.2 1.6s-1.1 2.6-1.1 4.7v1c0 2 .4 3.6 1.1 4.7s1.8 1.7 3.2 1.7c1.4 0 2.4-.5 3.2-1.6s1.1-2.7 1.1-4.7v-1zM663.4 154.2c-.7.9-1.8 1.6-3.1 2.1s-2.8.7-4.5.7c-1.7 0-3.2-.4-4.5-1.1s-2.3-1.8-3-3.3-1.1-3.1-1.1-5v-1.4c0-2 .3-3.7 1-5.2s1.6-2.6 2.9-3.3 2.7-1.2 4.4-1.2c2.4 0 4.2.6 5.5 1.7s2.1 2.8 2.4 4.9h-4c-.2-1.1-.6-2-1.2-2.5s-1.5-.8-2.6-.8c-1.4 0-2.5.5-3.2 1.6s-1.1 2.6-1.1 4.7v1.3c0 2.1.4 3.7 1.2 4.7s2 1.6 3.5 1.6 2.6-.3 3.3-1v-3.4h-3.7v-3h7.8v7.9z"></path></svg>